<?xml version="1.0" standalone="no"?>
<!DOCTYPE svg PUBLIC "-//W3C//DTD SVG 20010904//EN"
 "http://www.w3.org/TR/2001/REC-SVG-20010904/DTD/svg10.dtd">
<svg version="1.0" xmlns="http://www.w3.org/2000/svg"
 width="8000.000000pt" height="5331.000000pt" viewBox="0 0 8000.000000 5331.000000"
 preserveAspectRatio="xMidYMid meet">

<g transform="translate(0.000000,5331.000000) scale(0.100000,-0.100000)"
fill="#000000" stroke="none">
<path d="M15960 46764 c-718 -26 -1351 -130 -2105 -345 -851 -244 -1738 -622
-2650 -1132 -1010 -564 -2180 -1423 -2845 -2087 -441 -441 -557 -693 -347
-755 64 -19 122 -19 228 0 254 44 644 210 1059 450 84 50 404 257 710 460 956
638 1500 963 2180 1304 802 401 1499 666 2235 849 444 111 728 160 1165 199
242 22 906 25 1130 5 1011 -89 1866 -349 2600 -789 939 -565 1566 -1368 1879
-2410 99 -330 159 -638 206 -1068 38 -346 38 -1097 0 -1475 -2 -25 -9 -97 -15
-160 -6 -63 -13 -128 -15 -145 -2 -16 -9 -75 -15 -130 -15 -135 -55 -417 -86
-600 -207 -1243 -495 -2273 -1325 -4736 -460 -1367 -715 -2173 -928 -2941
-361 -1300 -570 -2388 -646 -3368 -3 -41 -8 -95 -10 -120 -41 -434 -41 -1630
0 -1955 2 -16 6 -68 10 -115 3 -47 15 -166 26 -265 290 -2658 1441 -4745 3314
-6011 1078 -729 2390 -1191 3930 -1384 127 -15 262 -31 300 -35 39 -3 115 -10
170 -15 169 -16 216 -19 335 -25 63 -4 120 -8 127 -10 31 -10 570 -20 998 -19
412 1 806 12 1030 29 33 2 98 7 145 10 760 46 1646 149 2815 325 266 40 851
141 1200 206 1274 238 2530 566 3635 947 222 77 519 184 611 221 11 5 69 -40
194 -149 566 -496 1290 -1029 1925 -1417 363 -222 1092 -624 1360 -750 30 -14
159 -76 286 -136 1015 -484 2272 -937 3545 -1277 261 -70 398 -105 799 -201
356 -86 1151 -249 1550 -319 521 -91 1054 -174 1560 -244 306 -42 1014 -126
1405 -166 28 -3 113 -11 190 -19 173 -18 172 -18 660 -60 220 -19 438 -37 485
-40 192 -13 247 -17 285 -21 22 -2 87 -7 145 -10 58 -3 123 -8 145 -10 41 -5
682 -39 925 -50 483 -22 2044 -22 2595 -1 77 3 210 8 295 11 158 6 491 21 635
30 44 2 123 7 175 10 187 11 257 15 400 25 80 6 181 13 225 16 180 12 742 59
835 69 19 2 69 7 110 10 41 3 237 24 435 46 907 100 1854 240 2600 384 72 14
136 25 143 25 7 0 -4 -26 -27 -63 -161 -260 -496 -909 -665 -1292 -231 -523
-609 -1512 -805 -2110 -241 -731 -528 -1835 -651 -2504 -128 -691 -175 -971
-229 -1366 -33 -242 -69 -503 -80 -580 -34 -245 -18 -401 56 -550 225 -448
817 -560 1179 -223 41 39 89 91 106 116 17 25 135 253 263 506 484 962 906
1644 1708 2756 613 850 1759 1925 2922 2742 1040 730 2208 1351 3372 1792 109
41 302 116 428 166 640 253 1226 458 2045 715 1060 332 1290 416 1439 527 36
27 60 55 73 85 19 43 19 45 1 81 -10 20 -39 52 -65 71 l-46 35 50 45 c151 135
127 333 -62 521 -140 140 -268 201 -528 251 -660 127 -877 173 -1302 279
-1436 357 -2823 884 -4040 1532 -332 176 -348 185 -555 298 -301 164 -291 158
-321 218 -16 33 -42 65 -68 84 -39 29 -44 30 -120 25 l-78 -5 -172 90 c-360
190 -618 343 -1146 679 -473 301 -1011 670 -1413 969 -272 203 -285 214 -291
250 -8 54 -48 84 -100 77 -38 -5 -45 -2 -185 112 -80 65 -229 184 -331 266
-265 213 -452 376 -1005 879 l-490 445 -178 102 -177 102 -88 -7 c-48 -4 -114
-9 -147 -11 -314 -24 -329 -26 -380 -53 -67 -36 -192 -161 -247 -247 -70 -109
-106 -216 -120 -355 -10 -109 -9 -131 11 -257 121 -744 411 -1895 698 -2768
431 -1313 923 -2346 1496 -3145 101 -140 341 -442 381 -479 14 -14 26 -28 26
-32 0 -3 -118 -10 -262 -13 -145 -4 -339 -9 -433 -11 -208 -6 -808 -14 -1490
-20 -280 -3 -827 -8 -1215 -12 -1460 -15 -3793 -9 -4225 12 -49 2 -178 7 -285
10 -107 3 -222 7 -255 10 -33 2 -127 7 -210 10 -82 3 -184 8 -225 10 -41 3
-127 7 -190 10 -63 3 -142 7 -175 10 -33 2 -100 7 -150 10 -240 14 -545 34
-625 40 -30 3 -120 9 -200 15 -80 5 -172 12 -205 15 -33 3 -199 16 -370 30
-170 14 -332 27 -360 30 -27 3 -147 14 -265 25 -179 17 -399 39 -650 65 -317
33 -1255 145 -1425 169 -16 3 -68 10 -115 16 -256 33 -1033 146 -1210 176
-1198 203 -2120 431 -3195 788 -1455 484 -2772 1113 -3900 1861 -343 228 -822
580 -1028 757 l-38 33 313 157 c856 429 1646 916 2318 1427 1769 1346 3125
3073 3876 4934 242 598 445 1297 559 1915 33 182 86 565 99 717 4 39 9 99 12
135 3 36 7 85 10 110 10 89 12 808 4 950 -94 1537 -624 2871 -1518 3822 -145
155 -377 368 -532 489 -145 114 -386 275 -558 373 -639 366 -1443 608 -2192
661 -47 3 -95 8 -107 11 -47 9 -565 13 -709 4 -686 -41 -1275 -160 -1892 -384
-638 -232 -1291 -595 -1842 -1024 -1233 -961 -2160 -2304 -2698 -3907 -260
-776 -424 -1642 -460 -2435 -13 -296 -5 -1002 12 -1096 2 -10 7 -59 10 -109 4
-49 18 -182 32 -295 106 -882 379 -1845 759 -2684 114 -253 370 -767 488 -981
425 -773 957 -1528 1554 -2207 57 -64 100 -119 96 -121 -43 -24 -768 -250
-1095 -341 -928 -259 -1526 -387 -3148 -676 -586 -104 -719 -128 -895 -155
-93 -15 -237 -38 -320 -51 -172 -28 -407 -62 -680 -99 -104 -14 -203 -27 -220
-30 -196 -27 -939 -100 -1230 -120 -44 -3 -102 -8 -130 -10 -48 -4 -135 -8
-480 -24 -210 -10 -958 -10 -1155 0 -225 10 -378 19 -435 25 -27 2 -129 11
-225 20 -1463 129 -2746 556 -3720 1237 -807 564 -1401 1246 -1888 2167 -483
914 -797 2119 -867 3330 -3 58 -8 141 -11 185 -13 196 -6 975 11 1200 2 33 7
101 10 150 80 1242 409 2702 1072 4755 52 162 241 738 420 1280 718 2180 960
2992 1222 4110 167 714 297 1500 336 2040 4 47 8 99 10 115 2 17 9 130 16 251
11 209 8 1011 -5 1109 -2 22 -7 76 -11 120 -46 597 -179 1230 -367 1745 -365
999 -954 1800 -1783 2426 -934 705 -2122 1139 -3475 1268 -236 23 -751 38
-990 30z m24750 -12264 c1368 -128 2393 -825 2976 -2025 329 -677 498 -1407
521 -2250 5 -197 -8 -622 -22 -730 -2 -16 -9 -79 -15 -140 -101 -1043 -484
-2197 -1065 -3210 -611 -1066 -1439 -2050 -2437 -2893 -519 -438 -960 -750
-1658 -1172 -353 -214 -991 -545 -1470 -763 l-234 -107 -96 103 c-656 698
-1158 1371 -1617 2172 -61 105 -243 455 -302 580 -398 835 -657 1672 -780
2520 -18 121 -33 255 -56 485 -13 134 -17 804 -6 995 96 1638 694 3197 1681
4380 712 854 1633 1497 2600 1815 402 133 786 210 1225 245 180 14 578 12 755
-5z m19282 -12852 c122 -111 405 -375 538 -503 52 -50 184 -166 292 -259 109
-93 196 -171 194 -175 -336 -556 -496 -825 -496 -831 0 -5 -5 -21 -11 -37 -11
-28 -11 -28 -35 32 -58 141 -191 491 -259 683 -40 114 -94 266 -120 337 -64
178 -138 425 -191 640 -43 174 -47 205 -24 205 6 0 56 -42 112 -92z m1665
-1431 c67 -50 122 -95 122 -98 1 -4 -14 -12 -31 -20 -18 -7 -142 -59 -275
-116 -133 -57 -248 -103 -254 -103 -21 0 -49 32 -49 56 0 12 35 85 78 161 43
76 96 170 117 208 56 104 50 101 114 50 31 -25 111 -87 178 -138z m663 -475
c0 -4 -23 -30 -51 -57 -65 -63 -397 -471 -737 -905 -145 -184 -277 -352 -295
-374 l-32 -38 -65 113 c-136 240 -407 775 -398 785 3 2 25 0 49 -5 77 -18 210
-13 285 10 37 11 178 66 313 121 818 334 931 376 931 350z m717 -456 c137 -84
294 -179 349 -210 54 -32 101 -60 103 -62 2 -2 -38 -23 -90 -48 -95 -44 -376
-177 -654 -309 -82 -39 -285 -138 -450 -220 -215 -107 -304 -146 -314 -140
-42 26 -38 37 69 180 111 148 734 963 736 963 1 0 114 -69 251 -154z m876
-748 c-11 -13 -350 -414 -753 -893 -403 -478 -743 -881 -756 -895 l-24 -25
-91 90 c-162 160 -386 425 -512 606 l-46 66 252 123 c139 68 420 206 626 307
205 101 374 183 376 183 2 0 710 345 880 430 73 36 74 36 48 8z m828 -199
c123 -64 157 -85 148 -95 -17 -20 -373 -313 -499 -409 -63 -49 -209 -172 -323
-274 -115 -102 -220 -192 -233 -199 -27 -14 -64 -8 -64 12 0 25 188 285 399
551 131 166 402 495 408 495 3 0 77 -37 164 -81z m870 -419 c68 -35 322 -147
569 -251 129 -55 238 -103 243 -108 8 -8 -3954 -4281 -3969 -4281 -7 0 1 14
249 405 693 1092 1659 2486 2581 3725 252 339 273 375 279 483 1 26 3 47 5 47
1 0 21 -9 43 -20z m1995 -809 c137 -48 307 -107 377 -131 104 -34 126 -45 115
-55 -7 -6 -97 -75 -200 -153 -288 -217 -534 -413 -690 -549 -137 -120 -213
-169 -232 -152 -5 5 -3 18 6 31 12 18 175 512 336 1016 14 45 29 82 32 82 3 0
118 -40 256 -89z m-3739 -528 c-117 -164 -294 -413 -392 -553 -98 -140 -265
-376 -370 -525 -410 -577 -975 -1409 -1259 -1855 -400 -626 -747 -1205 -945
-1572 -29 -54 -54 -98 -56 -98 -18 0 268 797 422 1175 240 590 548 1210 833
1675 220 358 415 614 776 1021 298 335 571 591 859 804 115 86 323 225 337
225 4 0 -88 -134 -205 -297z m4855 163 c194 -58 513 -148 743 -210 94 -25 95
-30 5 -41 -233 -27 -920 -206 -1379 -360 -124 -41 -226 -74 -227 -72 -1 1 34
43 78 92 108 121 418 482 496 578 34 42 64 77 66 77 3 0 101 -29 218 -64z
m-2327 -236 c3 -5 -10 -47 -28 -92 -61 -148 -366 -1081 -373 -1140 l-7 -57
-101 -59 c-100 -58 -171 -102 -606 -377 -725 -457 -911 -578 -1167 -754 -73
-51 -133 -89 -133 -86 0 11 1202 1314 1984 2150 175 187 408 425 418 425 4 0
10 -4 13 -10z m-5654 -5431 l46 -48 -131 -158 c-72 -87 -143 -174 -159 -193
-15 -19 -26 -28 -23 -20 2 8 37 147 77 308 l72 294 36 -67 c19 -38 56 -89 82
-116z"/>
</g>
</svg>
